<mxfile host="app.diagrams.net" modified="2020-05-18T15:16:44.762Z" agent="5.0 (X11)" etag="K9p5ZhpZEgxuhMhVqsKg" version="13.1.2" type="github">
  <diagram id="NmbMA73EY4SfufKgQ3tE" name="Page-1">
    <mxGraphModel dx="663" dy="379" grid="1" gridSize="10" guides="1" tooltips="1" connect="1" arrows="1" fold="1" page="1" pageScale="1" pageWidth="827" pageHeight="1169" math="0" shadow="0">
      <root>
        <mxCell id="0" />
        <mxCell id="1" parent="0" />
        <mxCell id="29aUZZDc1Ts6Plt9OG0N-1" value="Elemento (film)" style="whiteSpace=wrap;html=1;align=center;strokeWidth=2;fontStyle=1" vertex="1" parent="1">
          <mxGeometry x="350" y="220" width="100" height="40" as="geometry" />
        </mxCell>
        <mxCell id="29aUZZDc1Ts6Plt9OG0N-2" value="Elemento (libro)" style="whiteSpace=wrap;html=1;align=center;strokeWidth=2;fontStyle=1" vertex="1" parent="1">
          <mxGeometry x="180" y="220" width="100" height="40" as="geometry" />
        </mxCell>
        <mxCell id="29aUZZDc1Ts6Plt9OG0N-3" value="Elemento (gioco)" style="whiteSpace=wrap;html=1;align=center;strokeWidth=2;fontStyle=1" vertex="1" parent="1">
          <mxGeometry x="520" y="220" width="100" height="40" as="geometry" />
        </mxCell>
        <mxCell id="29aUZZDc1Ts6Plt9OG0N-4" value="Elemento" style="whiteSpace=wrap;html=1;align=center;strokeWidth=2;fontStyle=1" vertex="1" parent="1">
          <mxGeometry x="350" y="80" width="100" height="40" as="geometry" />
        </mxCell>
        <mxCell id="29aUZZDc1Ts6Plt9OG0N-5" value="" style="endArrow=none;html=1;rounded=0;strokeWidth=2;fontStyle=1" edge="1" parent="1">
          <mxGeometry relative="1" as="geometry">
            <mxPoint x="230" y="170" as="sourcePoint" />
            <mxPoint x="570" y="170" as="targetPoint" />
          </mxGeometry>
        </mxCell>
        <mxCell id="29aUZZDc1Ts6Plt9OG0N-6" value="" style="endArrow=none;html=1;rounded=0;exitX=0.5;exitY=0;exitDx=0;exitDy=0;strokeWidth=2;fontStyle=1" edge="1" parent="1" source="29aUZZDc1Ts6Plt9OG0N-2">
          <mxGeometry relative="1" as="geometry">
            <mxPoint x="70" y="170" as="sourcePoint" />
            <mxPoint x="230" y="170" as="targetPoint" />
          </mxGeometry>
        </mxCell>
        <mxCell id="29aUZZDc1Ts6Plt9OG0N-8" value="" style="endArrow=none;html=1;rounded=0;strokeWidth=2;fontStyle=1" edge="1" parent="1" target="29aUZZDc1Ts6Plt9OG0N-3">
          <mxGeometry relative="1" as="geometry">
            <mxPoint x="570" y="170" as="sourcePoint" />
            <mxPoint x="584" y="220" as="targetPoint" />
          </mxGeometry>
        </mxCell>
        <mxCell id="29aUZZDc1Ts6Plt9OG0N-9" value="" style="endArrow=classic;html=1;entryX=0.5;entryY=1;entryDx=0;entryDy=0;exitX=0.5;exitY=0;exitDx=0;exitDy=0;strokeWidth=2;fontStyle=1" edge="1" parent="1" source="29aUZZDc1Ts6Plt9OG0N-1" target="29aUZZDc1Ts6Plt9OG0N-4">
          <mxGeometry width="50" height="50" relative="1" as="geometry">
            <mxPoint x="430" y="230" as="sourcePoint" />
            <mxPoint x="480" y="180" as="targetPoint" />
          </mxGeometry>
        </mxCell>
        <mxCell id="29aUZZDc1Ts6Plt9OG0N-10" value="nt, e" style="text;html=1;strokeColor=none;fillColor=none;align=center;verticalAlign=middle;whiteSpace=wrap;rounded=0;strokeWidth=2;fontStyle=1" vertex="1" parent="1">
          <mxGeometry x="360" y="150" width="40" height="20" as="geometry" />
        </mxCell>
        <mxCell id="29aUZZDc1Ts6Plt9OG0N-11" value="" style="endArrow=none;html=1;strokeWidth=1;strokeColor=#666666;" edge="1" parent="1">
          <mxGeometry width="50" height="50" relative="1" as="geometry">
            <mxPoint x="230" y="300" as="sourcePoint" />
            <mxPoint x="230" y="260" as="targetPoint" />
          </mxGeometry>
        </mxCell>
        <mxCell id="29aUZZDc1Ts6Plt9OG0N-12" value="" style="endArrow=none;html=1;strokeWidth=1;strokeColor=#666666;" edge="1" parent="1">
          <mxGeometry width="50" height="50" relative="1" as="geometry">
            <mxPoint x="400" y="300" as="sourcePoint" />
            <mxPoint x="400" y="260" as="targetPoint" />
          </mxGeometry>
        </mxCell>
        <mxCell id="29aUZZDc1Ts6Plt9OG0N-13" value="" style="endArrow=none;html=1;strokeWidth=1;entryX=0.5;entryY=1;entryDx=0;entryDy=0;strokeColor=#666666;" edge="1" parent="1" target="29aUZZDc1Ts6Plt9OG0N-3">
          <mxGeometry width="50" height="50" relative="1" as="geometry">
            <mxPoint x="570" y="300" as="sourcePoint" />
            <mxPoint x="480" y="180" as="targetPoint" />
          </mxGeometry>
        </mxCell>
        <mxCell id="29aUZZDc1Ts6Plt9OG0N-14" value="" style="endArrow=none;html=1;strokeColor=#666666;strokeWidth=1;" edge="1" parent="1">
          <mxGeometry width="50" height="50" relative="1" as="geometry">
            <mxPoint x="300" y="100" as="sourcePoint" />
            <mxPoint x="350" y="100" as="targetPoint" />
          </mxGeometry>
        </mxCell>
        <mxCell id="29aUZZDc1Ts6Plt9OG0N-15" value="" style="endArrow=none;html=1;strokeColor=#666666;strokeWidth=1;entryX=1;entryY=0.5;entryDx=0;entryDy=0;" edge="1" parent="1" target="29aUZZDc1Ts6Plt9OG0N-4">
          <mxGeometry width="50" height="50" relative="1" as="geometry">
            <mxPoint x="500" y="100" as="sourcePoint" />
            <mxPoint x="480" y="180" as="targetPoint" />
          </mxGeometry>
        </mxCell>
        <mxCell id="29aUZZDc1Ts6Plt9OG0N-16" value="Riguardante" style="shape=rhombus;perimeter=rhombusPerimeter;whiteSpace=wrap;html=1;align=center;strokeWidth=1;strokeColor=#666666;fontColor=#666666;" vertex="1" parent="1">
          <mxGeometry x="500" y="70" width="120" height="60" as="geometry" />
        </mxCell>
        <mxCell id="29aUZZDc1Ts6Plt9OG0N-17" value="Possiede" style="shape=rhombus;perimeter=rhombusPerimeter;whiteSpace=wrap;html=1;align=center;strokeWidth=1;strokeColor=#666666;fontColor=#666666;" vertex="1" parent="1">
          <mxGeometry x="180" y="70" width="120" height="60" as="geometry" />
        </mxCell>
        <mxCell id="29aUZZDc1Ts6Plt9OG0N-18" value="" style="endArrow=none;html=1;rounded=0;strokeColor=#666666;strokeWidth=1;fontColor=#666666;exitX=1;exitY=0.5;exitDx=0;exitDy=0;" edge="1" parent="1" source="29aUZZDc1Ts6Plt9OG0N-16">
          <mxGeometry relative="1" as="geometry">
            <mxPoint x="370" y="200" as="sourcePoint" />
            <mxPoint x="660" y="100" as="targetPoint" />
          </mxGeometry>
        </mxCell>
        <mxCell id="29aUZZDc1Ts6Plt9OG0N-19" value="" style="endArrow=none;html=1;rounded=0;strokeColor=#666666;strokeWidth=1;fontColor=#666666;entryX=0;entryY=0.5;entryDx=0;entryDy=0;" edge="1" parent="1" target="29aUZZDc1Ts6Plt9OG0N-17">
          <mxGeometry relative="1" as="geometry">
            <mxPoint x="140" y="100" as="sourcePoint" />
            <mxPoint x="530" y="200" as="targetPoint" />
          </mxGeometry>
        </mxCell>
      </root>
    </mxGraphModel>
  </diagram>
</mxfile>
